<svg width="1024" height="1024" viewBox="0 0 1024 1024" fill="none" xmlns="http://www.w3.org/2000/svg">
<rect x="100" y="96" width="824" height="824" rx="184" fill="white"/>
<path d="M252.544 731.998H348.317V499.404L211.497 396.789V690.953C211.497 713.63 229.865 732 252.544 732V731.998Z" fill="#4285F4"/>
<path d="M676.683 731.997H772.457C795.135 731.997 813.503 713.629 813.503 690.952V396.789L676.683 499.404V731.997Z" fill="#34A853"/>
<path d="M676.683 321.539V499.404L813.503 396.789V342.062C813.503 291.336 755.595 262.365 714.993 292.807L676.683 321.539Z" fill="#FBBC04"/>
<path fill-rule="evenodd" clip-rule="evenodd" d="M348.317 499.404V321.539L512.5 444.677L676.683 321.539V499.404L512.5 622.542L348.317 499.404Z" fill="#EA4335"/>
<path d="M211.497 342.062V396.789L348.317 499.404V321.539L310.007 292.807C269.405 262.365 211.497 291.336 211.497 342.06V342.062Z" fill="#C5221F"/>
</svg>
